HIERARCHY
ROOT hip
{
  OFFSET 0.00112043 5.09927 -9.65472
  CHANNELS 6 Xposition Yposition Zposition Zrotation Xrotation Yrotation
  JOINT abdomen
  {
    OFFSET 0 -1.186 -1.5018
    CHANNELS 3 Zrotation Xrotation Yrotation
    JOINT abdomen2
    {
      OFFSET 0 9.964 0.2134
      CHANNELS 3 Zrotation Xrotation Yrotation
      JOINT chest
      {
        OFFSET 0 13.134 -3.2573
        CHANNELS 3 Zrotation Xrotation Yrotation
        JOINT neck
        {
          OFFSET 0 20.686 -1.6905
          CHANNELS 3 Zrotation Xrotation Yrotation
          JOINT head
          {
            OFFSET 0 7.238 -0.1237
            CHANNELS 3 Zrotation Xrotation Yrotation
            End Site
            {
              OFFSET 0 0 0
            }
          }
        }
        JOINT lCollar
        {
          OFFSET 1.7069 20.075 5.0056
          CHANNELS 3 Zrotation Xrotation Yrotation
          JOINT lShldr
          {
            OFFSET 13.6458 -0.047 -4.849
            CHANNELS 3 Zrotation Xrotation Yrotation
            JOINT lForeArm
            {
              OFFSET 28.3255 -0.9759 2.2888
              CHANNELS 3 Zrotation Xrotation Yrotation
              JOINT lHand
              {
                OFFSET 22.1583 -0.53 10.8316
                CHANNELS 3 Zrotation Xrotation Yrotation
                JOINT lThumb1
                {
                  OFFSET 0.786 0.112 2.5817
                  CHANNELS 3 Zrotation Xrotation Yrotation
                  JOINT lThumb2
                  {
                    OFFSET 0.3601 -0.878 4.2331
                    CHANNELS 3 Zrotation Xrotation Yrotation
                    JOINT lThumb2_End
                    {
                      OFFSET 1.8127 -1.216 2.2227
                      CHANNELS 3 Zrotation Xrotation Yrotation
                      End Site
                      {
                        OFFSET 0.0181 -0.0122 0.0222
                      }
                    }
                  }
                }
                JOINT lCarpal1
                {
                  OFFSET 0.9571 1.114 1.7695
                  CHANNELS 3 Zrotation Xrotation Yrotation
                  JOINT lIndex1
                  {
                    OFFSET 4.1246 0.487 4.1451
                    CHANNELS 3 Zrotation Xrotation Yrotation
                    JOINT lIndex2
                    {
                      OFFSET 3.4052 -1.454 2.7682
                      CHANNELS 3 Zrotation Xrotation Yrotation
                      JOINT lIndex2_End
                      {
                        OFFSET 1.4531 -1.795 1.2713
                        CHANNELS 3 Zrotation Xrotation Yrotation
                        End Site
                        {
                          OFFSET 0.0145 -0.0179 0.0127
                        }
                      }
                    }
                  }
                  JOINT lMid1
                  {
                    OFFSET 5.6954 0.21 2.1184
                    CHANNELS 3 Zrotation Xrotation Yrotation
                    JOINT lMid2
                    {
                      OFFSET 3.9766 -1.54 2.3863
                      CHANNELS 3 Zrotation Xrotation Yrotation
                      JOINT lMid2_End
                      {
                        OFFSET 1.4042 -1.926 1.125
                        CHANNELS 3 Zrotation Xrotation Yrotation
                        End Site
                        {
                          OFFSET 0.014 -0.0193 0.0113
                        }
                      }
                    }
                  }
                }
                JOINT lCarpal2
                {
                  OFFSET 2.0956 0.66 -0.3894
                  CHANNELS 3 Zrotation Xrotation Yrotation
                  JOINT lRing1
                  {
                    OFFSET 5.0395 -0.09 2.4971
                    CHANNELS 3 Zrotation Xrotation Yrotation
                    JOINT lRing2
                    {
                      OFFSET 3.7921 -1.552 1.4806
                      CHANNELS 3 Zrotation Xrotation Yrotation
                      JOINT lRing2_End
                      {
                        OFFSET 1.4655 -1.808 0.9609
                        CHANNELS 3 Zrotation Xrotation Yrotation
                        End Site
                        {
                          OFFSET 0.0147 -0.0181 0.0096
                        }
                      }
                    }
                  }
                  JOINT lPinky1
                  {
                    OFFSET 4.9141 -1.269 0.3591
                    CHANNELS 3 Zrotation Xrotation Yrotation
                    JOINT lPinky2
                    {
                      OFFSET 3.1477 -1.685 0.8462
                      CHANNELS 3 Zrotation Xrotation Yrotation
                      JOINT lPinky2_End
                      {
                        OFFSET 0.8055 -1.585 0.7955
                        CHANNELS 3 Zrotation Xrotation Yrotation
                        End Site
                        {
                          OFFSET 0.0081 -0.0158 0.008
                        }
                      }
                    }
                  }
                }
              }
            }
          }
        }
        JOINT rCollar
        {
          OFFSET -1.7069 20.075 5.0056
          CHANNELS 3 Zrotation Xrotation Yrotation
          JOINT rShldr
          {
            OFFSET -13.6458 -0.047 -4.849
            CHANNELS 3 Zrotation Xrotation Yrotation
            JOINT rForeArm
            {
              OFFSET -28.3255 -0.9759 2.2888
              CHANNELS 3 Zrotation Xrotation Yrotation
              JOINT rHand
              {
                OFFSET -22.1583 -0.53 10.8316
                CHANNELS 3 Zrotation Xrotation Yrotation
                JOINT rThumb1
                {
                  OFFSET -0.786 0.112 2.5817
                  CHANNELS 3 Zrotation Xrotation Yrotation
                  JOINT rThumb2
                  {
                    OFFSET -0.3601 -0.878 4.2331
                    CHANNELS 3 Zrotation Xrotation Yrotation
                    JOINT rThumb2_End
                    {
                      OFFSET -1.8127 -1.216 2.2227
                      CHANNELS 3 Zrotation Xrotation Yrotation
                      End Site
                      {
                        OFFSET -0.0181 -0.0122 0.0222
                      }
                    }
                  }
                }
                JOINT rCarpal1
                {
                  OFFSET -0.9571 1.114 1.7695
                  CHANNELS 3 Zrotation Xrotation Yrotation
                  JOINT rIndex1
                  {
                    OFFSET -4.1246 0.487 4.1451
                    CHANNELS 3 Zrotation Xrotation Yrotation
                    JOINT rIndex2
                    {
                      OFFSET -3.4052 -1.454 2.7682
                      CHANNELS 3 Zrotation Xrotation Yrotation
                      JOINT rIndex2_End
                      {
                        OFFSET -1.4531 -1.795 1.2713
                        CHANNELS 3 Zrotation Xrotation Yrotation
                        End Site
                        {
                          OFFSET -0.0145 -0.018 0.0127
                        }
                      }
                    }
                  }
                  JOINT rMid1
                  {
                    OFFSET -5.6954 0.21 2.1184
                    CHANNELS 3 Zrotation Xrotation Yrotation
                    JOINT rMid2
                    {
                      OFFSET -3.9766 -1.54 2.3863
                      CHANNELS 3 Zrotation Xrotation Yrotation
                      JOINT rMid2_End
                      {
                        OFFSET -1.4042 -1.926 1.125
                        CHANNELS 3 Zrotation Xrotation Yrotation
                        End Site
                        {
                          OFFSET -0.014 -0.0193 0.0113
                        }
                      }
                    }
                  }
                }
                JOINT rCarpal2
                {
                  OFFSET -2.0956 0.66 -0.3894
                  CHANNELS 3 Zrotation Xrotation Yrotation
                  JOINT rRing1
                  {
                    OFFSET -5.0395 -0.09 2.4971
                    CHANNELS 3 Zrotation Xrotation Yrotation
                    JOINT rRing2
                    {
                      OFFSET -3.7921 -1.552 1.4806
                      CHANNELS 3 Zrotation Xrotation Yrotation
                      JOINT rRing2_End
                      {
                        OFFSET -1.4655 -1.808 0.9609
                        CHANNELS 3 Zrotation Xrotation Yrotation
                        End Site
                        {
                          OFFSET -0.0147 -0.0181 0.0096
                        }
                      }
                    }
                  }
                  JOINT rPinky1
                  {
                    OFFSET -4.9141 -1.269 0.3592
                    CHANNELS 3 Zrotation Xrotation Yrotation
                    JOINT rPinky2
                    {
                      OFFSET -3.1477 -1.685 0.8462
                      CHANNELS 3 Zrotation Xrotation Yrotation
                      JOINT rPinky2_End
                      {
                        OFFSET -0.8055 -1.585 0.7955
                        CHANNELS 3 Zrotation Xrotation Yrotation
                        End Site
                        {
                          OFFSET -0.0081 -0.0158 0.008
                        }
                      }
                    }
                  }
                }
              }
            }
          }
        }
      }
    }
  }
  JOINT lThigh
  {
    OFFSET 8.367 -8.2066 0.5982
    CHANNELS 3 Zrotation Xrotation Yrotation
    JOINT lShin
    {
      OFFSET 2.1923 -43.463 -0.4932
      CHANNELS 3 Zrotation Xrotation Yrotation
      JOINT lFoot
      {
        OFFSET 0.7333 -45.8593 -2.6451
        CHANNELS 3 Zrotation Xrotation Yrotation
        End Site
        {
          OFFSET 2.6618 -4.2699 12.3931
        }
      }
    }
  }
  JOINT rThigh
  {
    OFFSET -8.367 -8.2066 0.5982
    CHANNELS 3 Zrotation Xrotation Yrotation
    JOINT rShin
    {
      OFFSET -2.1923 -43.463 -0.4931
      CHANNELS 3 Zrotation Xrotation Yrotation
      JOINT rFoot
      {
        OFFSET -0.7333 -45.8593 -2.6451
        CHANNELS 3 Zrotation Xrotation Yrotation
        End Site
        {
          OFFSET -2.6618 -4.2699 12.3931
        }
      }
    }
  }
}
MOTION
Frames:	6
Frame Time:	0.0333333
-4.62153 6.23799 2.11993 90 -3.97569e-016 7.00164 0.180017 6.43728 -0.182359 0.384441 12.8739 -0.38894 0.384474 12.8739 -0.388935 -9.61962 22.508 3.72785 -25.1819 9.0674 5.2213 -20.8328 -0.147562 -3.1897 -16.5078 1.86831 -42.3044 -46.3939 29.3009 -14.8004 11.529 -1.97789 13.767 -3.97569e-015 0 1.19271e-015 -3.18055e-015 6.36111e-015 3.97569e-016 -3.97569e-015 6.36111e-015 3.97569e-016 -2.38542e-015 0 7.95139e-016 -1.59028e-015 6.36111e-015 5.56597e-015 -2.38542e-015 6.36111e-015 7.95139e-016 -1.59028e-015 -3.18055e-015 3.97569e-016 -1.59028e-015 6.36111e-015 5.56597e-015 -2.38542e-015 6.36111e-015 7.95139e-016 -1.59028e-015 -3.18055e-015 3.97569e-016 -2.38542e-015 0 7.95139e-016 -1.59028e-015 6.36111e-015 5.56597e-015 -2.38542e-015 6.36111e-015 7.95139e-016 -1.59028e-015 -3.18055e-015 3.97569e-016 -1.59028e-015 6.36111e-015 5.56597e-015 -2.38542e-015 6.36111e-015 7.95139e-016 -1.59028e-015 -3.18055e-015 3.97569e-016 -10.108 16.1496 -10.1963 88.5705 -3.76019 -35.1749 -15.5552 -6.75473 95.3396 5.23224 -18.0425 21.4158 1.29453e-007 4.00732e-007 6.55576e-008 1.99129e-006 6.84382e-007 2.93846e-007 1.60293e-006 -5.17814e-007 9.71732e-008 2.38542e-015 -5.96354e-016 -3.18055e-015 1.29453e-007 4.00732e-007 6.55577e-008 1.99129e-006 6.84382e-007 2.93846e-007 1.60293e-006 -5.17814e-007 9.71732e-008 1.29453e-007 4.00732e-007 6.55577e-008 1.99129e-006 6.84382e-007 2.93846e-007 1.60293e-006 -5.17814e-007 9.71732e-008 2.38542e-015 -5.96354e-016 -3.18055e-015 1.29453e-007 4.00732e-007 6.55577e-008 1.99129e-006 6.84382e-007 2.93846e-007 1.60293e-006 -5.17814e-007 9.71732e-008 1.29453e-007 4.00732e-007 6.55577e-008 1.99129e-006 6.84382e-007 2.93846e-007 1.60293e-006 -5.17814e-007 9.71732e-008 58.5624 -52.0946 89.6576 -135.525 61.901 140.018 4.38244 22.9605 -3.662 -42.918 -60.7709 -50.532 14.241 81.2246 -15.1815 -7.13441 13.7598 -1.45812 
-4.84708 6.25919 2.02665 90 -3.97569e-016 7.00164 0.180802 6.38816 -0.182271 0.385682 12.7757 -0.388611 0.385674 12.7757 -0.388615 -9.43995 22.2667 3.63962 -24.9823 9.08362 5.17343 -21.5087 0.0412776 -4.04678 -16.4542 1.9258 -41.925 -45.0449 28.2954 -14.3949 10.5853 -1.85408 13.0365 1.59028e-015 -9.54166e-015 7.95139e-016 -7.95139e-016 -1.27222e-014 7.95139e-016 8.82781e-032 -6.36111e-015 7.95139e-016 1.59028e-015 -9.54166e-015 7.95139e-016 -7.95139e-016 -1.27222e-014 7.15625e-015 4.41391e-032 -6.36111e-015 3.97569e-016 1.98626e-031 -9.54166e-015 1.19271e-015 -7.95139e-016 -1.27222e-014 7.15625e-015 4.41391e-032 -6.36111e-015 3.97569e-016 1.98626e-031 -9.54166e-015 1.19271e-015 1.59028e-015 -9.54166e-015 7.95139e-016 -7.95139e-016 -1.27222e-014 7.15625e-015 4.41391e-032 -6.36111e-015 3.97569e-016 1.98626e-031 -9.54166e-015 1.19271e-015 -7.95139e-016 -1.27222e-014 7.15625e-015 4.41391e-032 -6.36111e-015 3.97569e-016 1.98626e-031 -9.54166e-015 1.19271e-015 -9.63461 15.5346 -9.99567 88.1582 -3.6162 -34.8962 -15.5162 -6.86343 94.9185 4.98391 -17.9317 20.6574 -3.3357e-006 6.33829e-007 -2.60328e-007 -1.29328e-007 -4.00796e-007 -6.53846e-008 -3.18055e-015 -8.05078e-015 6.36111e-015 -2.08724e-015 -2.08724e-015 9.54166e-015 -3.3357e-006 6.33829e-007 -2.60328e-007 -1.29328e-007 -4.00796e-007 -6.53846e-008 -6.95746e-016 -9.14409e-015 9.54166e-015 -3.3357e-006 6.33829e-007 -2.60328e-007 -1.29328e-007 -4.00796e-007 -6.53846e-008 -6.95746e-016 -9.14409e-015 9.54166e-015 -2.08724e-015 -2.08724e-015 9.54166e-015 -3.3357e-006 6.33829e-007 -2.60328e-007 -1.29328e-007 -4.00796e-007 -6.53846e-008 -6.95746e-016 -9.14409e-015 9.54166e-015 -3.3357e-006 6.33829e-007 -2.60328e-007 -1.29328e-007 -4.00796e-007 -6.53846e-008 -6.95746e-016 -9.14409e-015 9.54166e-015 58.1804 -52.0769 89.2672 -134.879 62.1199 139.432 4.43655 23.12 -3.78919 -42.5447 -60.5841 -50.1646 13.8079 80.7537 -14.7514 -7.15155 13.952 -1.404 
-5.05073 6.27832 1.94246 90 -3.97569e-016 7.00164 0.181578 6.34375 -0.182103 0.387189 12.6869 -0.388179 0.387184 12.6869 -0.38818 -9.27892 22.0496 3.56107 -24.8031 9.09803 5.13037 -22.1176 0.221592 -4.81974 -16.4062 1.97802 -41.5824 -43.8302 27.3986 -13.9997 9.73361 -1.73098 12.3773 -7.60835e-007 -3.46973e-008 -3.85113e-007 -1.59028e-015 -3.18055e-015 3.97569e-016 -2.38542e-015 3.18055e-015 -0 -7.95139e-016 -3.18055e-015 7.95139e-016 -7.60835e-007 -3.46973e-008 -3.85113e-007 -7.95139e-016 0 -7.95139e-016 -7.95139e-016 0 3.97569e-016 -7.60835e-007 -3.46973e-008 -3.85113e-007 -7.95139e-016 0 -7.95139e-016 -7.95139e-016 0 3.97569e-016 -7.95139e-016 -3.18055e-015 7.95139e-016 -7.60835e-007 -3.46973e-008 -3.85113e-007 -7.95139e-016 0 -7.95139e-016 -7.95139e-016 0 3.97569e-016 -7.60835e-007 -3.46973e-008 -3.85113e-007 -7.95139e-016 0 -7.95139e-016 -7.95139e-016 0 3.97569e-016 -9.20634 14.9805 -9.80977 87.7854 -3.48811 -34.6435 -15.4816 -6.96223 94.5382 4.76089 -17.8292 19.973 -2.88238e-015 5.66536e-015 -9.54166e-015 1.99108e-006 6.85622e-007 2.93455e-007 1.60339e-006 -5.16919e-007 9.77239e-008 -2.88238e-015 3.8763e-015 -9.54166e-015 -1.39149e-015 4.37326e-015 -0 1.99108e-006 6.85622e-007 2.93455e-007 1.60339e-006 -5.16919e-007 9.77239e-008 -1.39149e-015 4.37326e-015 -0 1.99108e-006 6.85622e-007 2.93455e-007 1.60339e-006 -5.16919e-007 9.77239e-008 -2.88238e-015 3.8763e-015 -9.54166e-015 -1.39149e-015 4.37326e-015 -0 1.99108e-006 6.85622e-007 2.93455e-007 1.60339e-006 -5.16919e-007 9.77239e-008 -1.39149e-015 4.37326e-015 -0 1.99108e-006 6.85622e-007 2.93455e-007 1.60339e-006 -5.16919e-007 9.77239e-008 57.8383 -52.0587 88.9173 -134.29 62.3141 138.896 4.48586 23.2645 -3.90423 -42.2119 -60.4146 -49.8373 13.0477 80.3272 -15.1378 -7.38508 13.9994 -0.18744 
-5.25439 6.29745 1.85827 90 -3.97569e-016 7.00164 0.18199 6.29937 -0.181819 0.387755 12.5981 -0.387472 0.38779 12.5981 -0.387465 -9.11842 21.832 3.48324 -24.6238 9.1123 5.08726 -22.7248 0.410289 -5.59175 -16.3585 2.03054 -41.2397 -42.6174 26.5087 -13.5861 8.88227 -1.59792 11.7192 -4.87872e-009 8.21977e-008 1.90662e-006 1.19455e-006 5.46386e-008 9.72924e-007 1.59028e-015 6.36111e-015 -3.97569e-016 -1.59028e-015 3.18055e-015 7.95139e-016 -4.87872e-009 8.21977e-008 1.90662e-006 1.19455e-006 5.46386e-008 9.72924e-007 2.64834e-031 1.90833e-014 -7.95139e-016 -4.87872e-009 8.21977e-008 1.90662e-006 1.19455e-006 5.46386e-008 9.72924e-007 2.64834e-031 1.90833e-014 -7.95139e-016 -1.59028e-015 3.18055e-015 7.95139e-016 -4.87872e-009 8.21977e-008 1.90662e-006 1.19455e-006 5.46386e-008 9.72924e-007 2.64834e-031 1.90833e-014 -7.95139e-016 -4.87872e-009 8.21977e-008 1.90662e-006 1.19455e-006 5.46386e-008 9.72924e-007 2.64834e-031 1.90833e-014 -7.95139e-016 -8.777 14.4273 -9.61996 87.4119 -3.36164 -34.39 -15.4477 -7.06128 94.1579 4.53919 -17.7241 19.2891 -3.37934e-015 -3.27995e-015 6.36111e-015 -4.67144e-015 9.93923e-016 3.18055e-015 -3.47873e-015 9.93923e-017 -9.54166e-015 -3.37934e-015 -2.68359e-015 6.36111e-015 -3.27995e-015 -3.97569e-015 1.59028e-014 -2.98177e-016 -8.94531e-016 -9.54166e-015 -6.06293e-015 -2.38542e-015 -3.18055e-015 -3.27995e-015 -3.97569e-015 1.59028e-014 -2.98177e-016 -8.94531e-016 -9.54166e-015 -6.06293e-015 -2.38542e-015 -3.18055e-015 -3.37934e-015 -2.68359e-015 6.36111e-015 -3.27995e-015 -3.97569e-015 1.59028e-014 -2.98177e-016 -8.94531e-016 -9.54166e-015 -6.06293e-015 -2.38542e-015 -3.18055e-015 -3.27995e-015 -3.97569e-015 1.59028e-014 -2.98177e-016 -8.94531e-016 -9.54166e-015 -6.06293e-015 -2.38542e-015 -3.18055e-015 57.4954 -52.0401 88.5673 -133.69 62.5067 138.352 4.53562 23.4094 -4.0194 -41.8829 -60.2443 -49.514 12.7417 79.9008 -14.8278 -7.40335 14.1736 -0.143547 
-5.45804 6.31657 1.77412 90 -3.97569e-016 7.00164 0.182273 6.25494 -0.181517 0.388194 12.5092 -0.386679 0.388166 12.5092 -0.386687 -8.95844 21.6144 3.40625 -24.4445 9.12648 5.04411 -23.3301 0.607368 -6.36257 -16.3111 2.08335 -40.8971 -41.4064 25.6269 -13.1549 8.0315 -1.45488 11.0623 4.30435e-007 3.77481e-008 6.10015e-007 7.62488e-007 3.94584e-008 3.81458e-007 3.32053e-007 1.71025e-009 -2.28557e-007 7.95139e-016 0 -7.95139e-016 4.30435e-007 3.77481e-008 6.10015e-007 7.62488e-007 3.94584e-008 3.81458e-007 3.32053e-007 1.71024e-009 -2.28557e-007 4.30435e-007 3.77481e-008 6.10015e-007 7.62488e-007 3.94584e-008 3.81458e-007 3.32053e-007 1.71024e-009 -2.28557e-007 7.95139e-016 0 -7.95139e-016 4.30435e-007 3.77481e-008 6.10015e-007 7.62488e-007 3.94584e-008 3.81458e-007 3.32053e-007 1.71024e-009 -2.28557e-007 4.30435e-007 3.77481e-008 6.10015e-007 7.62488e-007 3.94584e-008 3.81458e-007 3.32053e-007 1.71024e-009 -2.28557e-007 -8.34656 13.8751 -9.42621 87.0378 -3.23679 -34.1356 -15.4144 -7.16061 93.7774 4.31884 -17.6164 18.6057 3.92014e-006 1.09129e-006 -2.75087e-006 1.16944e-006 8.03806e-009 -2.00016e-006 1.29074e-007 4.00925e-007 6.5023e-008 -7.95139e-016 3.47873e-015 3.18055e-015 3.92014e-006 1.09129e-006 -2.75087e-006 1.16944e-006 8.03806e-009 -2.00016e-006 1.29074e-007 4.00926e-007 6.5023e-008 3.92014e-006 1.09129e-006 -2.75087e-006 1.16944e-006 8.03806e-009 -2.00016e-006 1.29074e-007 4.00926e-007 6.5023e-008 -7.95139e-016 3.47873e-015 3.18055e-015 3.92014e-006 1.09129e-006 -2.75087e-006 1.16944e-006 8.03806e-009 -2.00016e-006 1.29074e-007 4.00926e-007 6.5023e-008 3.92014e-006 1.09129e-006 -2.75087e-006 1.16944e-006 8.03806e-009 -2.00016e-006 1.29074e-007 4.00926e-007 6.5023e-008 57.1535 -52.0204 88.2186 -133.083 62.6968 137.8 4.58589 23.5546 -4.13474 -41.5577 -60.0731 -49.1946 12.4596 79.4738 -14.5419 -7.42177 14.3481 -0.0995459 
-5.66168 6.3357 1.68999 90 -3.97569e-016 7.00164 0.182652 6.21049 -0.181218 0.38865 12.4203 -0.385925 0.388652 12.4203 -0.385923 -8.79902 21.3965 3.33001 -24.2652 9.14049 5.00089 -23.9333 0.812791 -7.13205 -16.264 2.13644 -40.5544 -40.197 24.7534 -12.7064 7.18154 -1.30197 10.4069 7.95139e-016 3.18055e-015 1.59028e-015 0 6.36111e-015 -0 1.59028e-015 6.36111e-015 -1.59028e-015 7.95139e-016 3.18055e-015 1.59028e-015 -7.06225e-031 6.36111e-015 6.36111e-015 2.38542e-015 -3.18055e-015 -1.59028e-015 1.59028e-015 0 -1.59028e-015 -7.06225e-031 6.36111e-015 6.36111e-015 2.38542e-015 -3.18055e-015 -1.59028e-015 1.59028e-015 0 -1.59028e-015 7.95139e-016 3.18055e-015 1.59028e-015 -7.06225e-031 6.36111e-015 6.36111e-015 2.38542e-015 -3.18055e-015 -1.59028e-015 1.59028e-015 0 -1.59028e-015 -7.06225e-031 6.36111e-015 6.36111e-015 2.38542e-015 -3.18055e-015 -1.59028e-015 1.59028e-015 0 -1.59028e-015 -7.91494 13.3241 -9.22854 86.6632 -3.11357 -33.8804 -15.3817 -7.26012 93.3969 4.0999 -17.5062 17.9228 -8.94531e-016 0 -0 -8.94531e-016 6.95746e-016 3.18055e-015 -8.94531e-016 1.39149e-015 -0 -8.94531e-016 0 -0 -3.47873e-015 -5.96354e-016 9.54166e-015 3.08116e-015 -4.96962e-016 -6.36111e-015 2.08724e-015 -1.68967e-015 3.18055e-015 -3.47873e-015 -5.96354e-016 9.54166e-015 3.08116e-015 -4.96962e-016 -6.36111e-015 2.08724e-015 -1.68967e-015 3.18055e-015 -8.94531e-016 0 -0 -3.47873e-015 -5.96354e-016 9.54166e-015 3.08116e-015 -4.96962e-016 -6.36111e-015 2.08724e-015 -1.68967e-015 3.18055e-015 -3.47873e-015 -5.96354e-016 9.54166e-015 3.08116e-015 -4.96962e-016 -6.36111e-015 2.08724e-015 -1.68967e-015 3.18055e-015 56.8149 -51.9983 87.8728 -132.471 62.8834 137.242 4.6366 23.7003 -4.25024 -41.2363 -59.9011 -48.8792 12.1988 79.0466 -14.2777 -7.44046 14.5227 -0.0554422 
